<svg width="56" height="46" viewBox="0 0 56 46" fill="none" xmlns="http://www.w3.org/2000/svg">
<path fill-rule="evenodd" clip-rule="evenodd" d="M19.0865 0H36.9135L41.3695 4.842H51.13C53.8076 4.842 56 6.9955 56 9.684V41.158C56 43.8461 53.809 46 51.13 46H4.87C2.19243 46 0 43.8465 0 41.158V9.684C0 6.99595 2.19097 4.842 4.87 4.842H14.6305L19.0865 0ZM20.8415 4L16.3855 8.842H4.87C4.36903 8.842 4 9.23605 4 9.684V41.158C4 41.6055 4.36957 42 4.87 42H51.13C51.631 42 52 41.606 52 41.158V9.684C52 9.2365 51.6304 8.842 51.13 8.842H39.6145L35.1585 4H20.8415ZM28 14C22.4876 14 18 18.4876 18 24C18 29.5124 22.4876 34 28 34C33.5124 34 38 29.5124 38 24C38 18.4876 33.5124 14 28 14ZM14 24C14 16.2784 20.2784 10 28 10C35.7216 10 42 16.2784 42 24C42 31.7216 35.7216 38 28 38C20.2784 38 14 31.7216 14 24Z" fill="#589AB8"/>
</svg>
