<svg width="109" height="96" viewBox="0 0 109 96" fill="none" xmlns="http://www.w3.org/2000/svg">
<g clip-path="url(#clip0)">
<path fill-rule="evenodd" clip-rule="evenodd" d="M56.9624 94.3541H5.22591C2.33972 94.3541 0 92.0072 0 89.1122V20.9676C0 18.0726 2.33972 15.7257 5.22591 15.7257H23.966L38.1126 1.53589C39.0911 0.550811 40.4209 -0.00200589 41.8073 5.46938e-06H62.7109C64.0973 -0.00200589 65.4271 0.550811 66.4056 1.53589L80.5522 15.7257H99.2923C102.178 15.7257 104.518 18.0726 104.518 20.9676V50.8464H94.0664V26.2095H78.3886C77.0023 26.2115 75.6724 25.6587 74.6939 24.6736L60.5474 10.4838H43.9708L29.8243 24.6736C28.847 25.6591 27.5196 26.2095 26.1295 26.2095H10.4518V83.8703H56.9624V94.3541ZM52.2591 31.4514C63.5889 31.4514 73.1627 41.0545 73.1627 52.4189C73.1627 63.7833 63.5889 73.3865 52.2591 73.3865C40.9293 73.3865 31.3555 63.7833 31.3555 52.4189C31.3555 41.0545 40.9293 31.4514 52.2591 31.4514ZM52.2591 62.9027C57.8247 62.9027 62.7109 58.0015 62.7109 52.4189C62.7109 46.8363 57.8247 41.9351 52.2591 41.9351C46.6935 41.9351 41.8073 46.8363 41.8073 52.4189C41.8073 58.0015 46.6935 62.9027 52.2591 62.9027Z" fill="#589AB8"/>
<path fill-rule="evenodd" clip-rule="evenodd" d="M78.3886 81.1759L71.6315 74.3982L64.2421 81.8102L78.3886 96L108.213 66.0845L100.823 58.6725L78.3886 81.1759Z" fill="#4DB377"/>
</g>
<defs>
<clipPath id="clip0">
<rect width="109" height="96" fill="white"/>
</clipPath>
</defs>
</svg>
